<svg width="24" height="24" viewBox="0 0 24 24" fill="none" xmlns="http://www.w3.org/2000/svg">
<g clip-path="url(#clip0_44_685)">
<path fill-rule="evenodd" clip-rule="evenodd" d="M22 6C22 4.9 21.1 4 20 4H4C2.9 4 2 4.9 2 6V18C2 19.1 2.9 20 4 20H10.254C10.0852 19.3462 10 18.6741 10 18H4V8L11.8376 12.8985C11.9969 12.7061 12.1655 12.5208 12.3431 12.3431C13.462 11.2243 14.8874 10.4624 16.4393 10.1537C16.4939 10.1428 16.5487 10.1326 16.6035 10.1228L20 8V10.254C20.3603 10.347 20.715 10.4654 21.0615 10.609C21.3853 10.7431 21.6987 10.8979 22 11.0718V6ZM20 6L12 11L4 6H20Z" fill="white"/>
<path fill-rule="evenodd" clip-rule="evenodd" d="M24 18.5C24 19.163 23.7366 19.7989 23.2678 20.2678C22.7989 20.7366 22.163 21 21.5 21C20.8866 21 20.2964 20.7745 19.8402 20.3695C19.3321 20.7647 18.6935 21 18 21C16.3431 21 15 19.6569 15 18C15 16.3431 16.3431 15 18 15C19.6569 15 21 16.3431 21 18V18.5C21 18.6326 21.0527 18.7598 21.1464 18.8536C21.2402 18.9473 21.3674 19 21.5 19C21.6326 19 21.7598 18.9473 21.8536 18.8536C21.9473 18.7598 22 18.6326 22 18.5L21.9996 18C21.9996 17.209 21.765 16.4357 21.3255 15.7779C20.8861 15.1202 20.2614 14.6076 19.5306 14.3049C18.7998 14.0021 17.9956 13.9229 17.2197 14.0773C16.4439 14.2316 15.7312 14.6125 15.1719 15.1719C14.6125 15.7312 14.2316 16.4439 14.0773 17.2197C13.9229 17.9956 14.0021 18.7998 14.3049 19.5306C14.6076 20.2614 15.1202 20.8861 15.7779 21.3255C16.4357 21.765 17.209 21.9996 18 21.9996L21 22V24L18 24C16.8133 24 15.6533 23.6481 14.6666 22.9888C13.6799 22.3295 12.9109 21.3925 12.4567 20.2961C12.0026 19.1997 11.8838 17.9933 12.1153 16.8295C12.3468 15.6656 12.9182 14.5965 13.7574 13.7574C14.5965 12.9182 15.6656 12.3468 16.8295 12.1153C17.9933 11.8838 19.1997 12.0026 20.2961 12.4567C21.3925 12.9109 22.3295 13.6799 22.9888 14.6666C23.6481 15.6533 24 16.8133 24 18V18.5ZM18 18.999C17.4483 18.999 17.001 18.5517 17.001 18C17.001 17.4483 17.4483 17.001 18 17.001C18.5517 17.001 18.999 17.4483 18.999 18C18.999 18.5517 18.5517 18.999 18 18.999Z" fill="white"/>
</g>
<defs>
<clipPath id="clip0_44_685">
<rect width="24" height="24" fill="white"/>
</clipPath>
</defs>
</svg>
