<svg width="24" height="24" viewBox="0 0 24 24" fill="none" xmlns="http://www.w3.org/2000/svg">
<path fill-rule="evenodd" clip-rule="evenodd" d="M11.2261 2.78191C6.47961 3.17505 2.75 7.15197 2.75 12C2.75 17.1086 6.89136 21.25 12 21.25C16.848 21.25 20.825 17.5204 21.2181 12.7739C19.9155 14.4205 17.8998 15.4773 15.6363 15.4773C11.7076 15.4773 8.52275 12.2924 8.52275 8.36365C8.52275 6.10024 9.5795 4.08455 11.2261 2.78191ZM1.25 12C1.25 6.06294 6.06294 1.25 12 1.25C12.7453 1.25 13.4737 1.32596 14.1775 1.47082C14.519 1.5411 14.767 1.8374 14.7761 2.18591C14.7852 2.53441 14.5529 2.84321 14.2156 2.93116C11.8028 3.56023 10.0227 5.75499 10.0227 8.36365C10.0227 11.464 12.536 13.9773 15.6363 13.9773C18.245 13.9773 20.4398 12.1972 21.0688 9.78445C21.1568 9.44711 21.4655 9.21484 21.8141 9.2239C22.1626 9.23297 22.4589 9.48097 22.5291 9.82243C22.674 10.5263 22.75 11.2547 22.75 12C22.75 17.9371 17.9371 22.75 12 22.75C6.06294 22.75 1.25 17.9371 1.25 12Z" fill="white"/>
</svg>
