<svg width="24" height="24" viewBox="0 0 24 24" fill="none" xmlns="http://www.w3.org/2000/svg">
<path d="M5.25 6.5C5.25 4.15279 7.15279 2.25 9.5 2.25C11.8472 2.25 13.75 4.15279 13.75 6.5C13.75 8.84721 11.8472 10.75 9.5 10.75C7.15279 10.75 5.25 8.84721 5.25 6.5ZM9.5 3.75C7.98121 3.75 6.75 4.98122 6.75 6.5C6.75 8.01879 7.98121 9.25 9.5 9.25C11.0188 9.25 12.25 8.01879 12.25 6.5C12.25 4.98122 11.0188 3.75 9.5 3.75Z" fill="white"/>
<path d="M15.6614 3.11291C15.8752 2.75812 16.3361 2.64382 16.6909 2.8576C17.9231 3.60011 18.75 4.95313 18.75 6.49999C18.75 8.04685 17.9231 9.39987 16.6909 10.1424C16.3361 10.3562 15.8752 10.2419 15.6614 9.88707C15.4477 9.53229 15.562 9.07138 15.9167 8.8576C16.7173 8.37521 17.25 7.49943 17.25 6.49999C17.25 5.50055 16.7173 4.62477 15.9167 4.14238C15.562 3.9286 15.4477 3.46769 15.6614 3.11291Z" fill="white"/>
<path d="M8.367 13.25H10.633C11.7251 13.25 12.5906 13.25 13.2883 13.307C14.0016 13.3653 14.6053 13.4869 15.1564 13.7677C16.0502 14.2231 16.7769 14.9498 17.2323 15.8436C17.5131 16.3947 17.6347 16.9984 17.693 17.7117C17.75 18.4094 17.75 19.2748 17.75 20.367V21C17.75 21.4142 17.4142 21.75 17 21.75H2C1.58579 21.75 1.25 21.4142 1.25 21L1.25 20.367C1.24999 19.2749 1.24999 18.4094 1.30699 17.7117C1.36527 16.9984 1.48688 16.3947 1.76772 15.8436C2.22311 14.9498 2.94977 14.2231 3.84354 13.7677C4.39472 13.4869 4.99836 13.3653 5.71175 13.307C6.40937 13.25 7.27486 13.25 8.367 13.25ZM4.52451 15.1042C3.913 15.4158 3.41582 15.913 3.10423 16.5245C2.94909 16.829 2.85271 17.2133 2.80201 17.8339C2.75288 18.4351 2.75015 19.1959 2.75001 20.25H16.25C16.2498 19.1959 16.2471 18.4351 16.198 17.8339C16.1473 17.2133 16.0509 16.829 15.8958 16.5245C15.5842 15.913 15.087 15.4158 14.4755 15.1042M14.4755 15.1042C14.171 14.9491 13.7867 14.8527 13.1661 14.802C12.5367 14.7506 11.7325 14.75 10.6 14.75H8.4C7.26752 14.75 6.46327 14.7506 5.83389 14.802C5.21327 14.8527 4.829 14.9491 4.52451 15.1042" fill="white"/>
<path d="M19.1478 14.0955C19.3359 13.7264 19.7875 13.5796 20.1566 13.7677C21.0503 14.2231 21.777 14.9498 22.2324 15.8436C22.5132 16.3947 22.6349 16.9984 22.6931 17.7117C22.7501 18.4094 22.7501 19.2749 22.7501 20.367V21C22.7501 21.4142 22.4143 21.75 22.0001 21.75C21.5859 21.75 21.2501 21.4142 21.2501 21V20.4C21.2501 19.2675 21.2495 18.4633 21.1981 17.8339C21.1474 17.2133 21.051 16.829 20.8959 16.5245M19.1478 14.0955C18.9598 14.4645 19.1065 14.9162 19.4756 15.1042ZM19.4756 15.1042C19.7902 15.2645 20.0746 15.474 20.319 15.7228C20.5496 15.9577 20.7446 16.2276 20.8959 16.5245" fill="white"/>
<path d="M20.319 15.7228L19.1478 14.0955L19.4756 15.1042C19.7902 15.2645 20.0746 15.474 20.319 15.7228Z" fill="white"/>
</svg>
