<svg width="24" height="24" viewBox="0 0 24 24" fill="none" xmlns="http://www.w3.org/2000/svg">
<path fill-rule="evenodd" clip-rule="evenodd" d="M2.75 10C2.75 9.58579 3.08579 9.25 3.5 9.25H20.5C20.9142 9.25 21.25 9.58579 21.25 10V22C21.25 22.4142 20.9142 22.75 20.5 22.75H3.5C3.08579 22.75 2.75 22.4142 2.75 22V10ZM4.25 10.75V21.25H19.75V10.75H4.25Z" fill="white"/>
<path fill-rule="evenodd" clip-rule="evenodd" d="M12 9.25C12.4142 9.25 12.75 9.58579 12.75 10V22C12.75 22.4142 12.4142 22.75 12 22.75C11.5858 22.75 11.25 22.4142 11.25 22V10C11.25 9.58579 11.5858 9.25 12 9.25Z" fill="white"/>
<path fill-rule="evenodd" clip-rule="evenodd" d="M2.75 22C2.75 21.5858 3.08579 21.25 3.5 21.25H20.5C20.9142 21.25 21.25 21.5858 21.25 22C21.25 22.4142 20.9142 22.75 20.5 22.75H3.5C3.08579 22.75 2.75 22.4142 2.75 22Z" fill="white"/>
<path fill-rule="evenodd" clip-rule="evenodd" d="M1.25 6C1.25 5.58579 1.58579 5.25 2 5.25H22C22.4142 5.25 22.75 5.58579 22.75 6V10C22.75 10.4142 22.4142 10.75 22 10.75H2C1.58579 10.75 1.25 10.4142 1.25 10V6ZM2.75 6.75V9.25H21.25V6.75H2.75Z" fill="white"/>
<path fill-rule="evenodd" clip-rule="evenodd" d="M7.46967 1.46967C7.76256 1.17678 8.23744 1.17678 8.53033 1.46967L12 4.93934L15.4697 1.46967C15.7626 1.17678 16.2374 1.17678 16.5303 1.46967C16.8232 1.76256 16.8232 2.23744 16.5303 2.53033L12.5303 6.53033C12.2374 6.82322 11.7626 6.82322 11.4697 6.53033L7.46967 2.53033C7.17678 2.23744 7.17678 1.76256 7.46967 1.46967Z" fill="white"/>
</svg>
