<svg width="24" height="24" viewBox="0 0 24 24" fill="none" xmlns="http://www.w3.org/2000/svg">
<path fill-rule="evenodd" clip-rule="evenodd" d="M2 12C2 6.48 6.48 2 12 2C17.52 2 22 6.48 22 12C22 12.6849 21.931 13.3537 21.7997 14H19.7435C19.9105 13.3616 20 12.6916 20 12C20 7.59 16.41 4 12 4C7.59 4 4 7.59 4 12C4 13.82 4.62 15.49 5.64 16.83C7.07 15.09 10.54 14.5 12 14.5C13.102 14.5 15.3493 14.8362 17 15.7493V17H14.859C13.9471 16.697 12.8896 16.5 12 16.5C10.12 16.5 7.5 17.38 7.07 18.28C8.43 19.36 10.14 20 12 20C12.6908 20 13.3609 19.9117 14 19.7454V21.7997C13.3537 21.931 12.6849 22 12 22C6.48 22 2 17.52 2 12ZM8.5 9.5C8.5 7.56 10.06 6 12 6C13.94 6 15.5 7.56 15.5 9.5C15.5 11.44 13.94 13 12 13C10.06 13 8.5 11.44 8.5 9.5ZM10.5 9.5C10.5 10.33 11.17 11 12 11C12.83 11 13.5 10.33 13.5 9.5C13.5 8.67 12.83 8 12 8C11.17 8 10.5 8.67 10.5 9.5Z" fill="white"/>
<path d="M24 21H21V24H19V21H16V19H19V16H21V19H24V21Z" fill="white"/>
</svg>
