<svg width="24" height="24" viewBox="0 0 24 24" fill="none" xmlns="http://www.w3.org/2000/svg">
<path fill-rule="evenodd" clip-rule="evenodd" d="M2 12C2 6.48 6.48 2 12 2C17.52 2 22 6.48 22 12C22 12.4231 21.9737 12.8401 21.9226 13.2494L18.4147 16.7573C19.4021 15.4298 20 13.7872 20 12C20 7.59 16.41 4 12 4C7.59 4 4 7.59 4 12C4 13.82 4.62 15.49 5.64 16.83C7.07 15.09 10.54 14.5 12 14.5C13.4572 14.5 16.9169 15.0878 18.3519 16.8201L16.9175 18.2545C16.4604 17.3635 13.8622 16.5 12 16.5C10.12 16.5 7.5 17.38 7.07 18.28C8.43 19.36 10.14 20 12 20C13.7845 20 15.4309 19.4109 16.7627 18.4093L15.172 20L16.2333 21.0613C14.9475 21.6635 13.5128 22 12 22C6.48 22 2 17.52 2 12ZM8.5 9.5C8.5 7.56 10.06 6 12 6C13.94 6 15.5 7.56 15.5 9.5C15.5 11.44 13.94 13 12 13C10.06 13 8.5 11.44 8.5 9.5ZM10.5 9.5C10.5 10.33 11.17 11 12 11C12.83 11 13.5 10.33 13.5 9.5C13.5 8.67 12.83 8 12 8C11.17 8 10.5 8.67 10.5 9.5Z" fill="white"/>
<path d="M23.41 17.41L22 16L18 20L22 24L23.41 22.59L20.83 20L23.41 17.41Z" fill="white"/>
</svg>
