<svg width="24" height="24" viewBox="0 0 24 24" fill="none" xmlns="http://www.w3.org/2000/svg">
<path d="M9 20C9 21.1046 8.10457 22 7 22C5.89543 22 5 21.1046 5 20C5 18.8954 5.89543 18 7 18C8.10457 18 9 18.8954 9 20Z" fill="white"/>
<path d="M19 20C19 21.1046 18.1046 22 17 22C15.8954 22 15 21.1046 15 20C15 18.8954 15.8954 18 17 18C18.1046 18 19 18.8954 19 20Z" fill="white"/>
<path fill-rule="evenodd" clip-rule="evenodd" d="M7 22C8.10457 22 9 21.1046 9 20C9 18.8954 8.10457 18 7 18C5.89543 18 5 18.8954 5 20C5 21.1046 5.89543 22 7 22ZM17 22C18.1046 22 19 21.1046 19 20C19 18.8954 18.1046 18 17 18C15.8954 18 15 18.8954 15 20C15 21.1046 15.8954 22 17 22Z" fill="white"/>
<path fill-rule="evenodd" clip-rule="evenodd" d="M2 2H4H5.5L6.0363 4H21C21.0942 3.99747 21.1632 4.00833 21.2589 4.03397C21.7924 4.17691 22.1089 4.72524 21.966 5.25871L19.9318 11.5177C19.6922 12.4116 18.8835 13.001 18 13.0005L7.53585 13L7 15H19V17H7C6.69322 17 6.39056 16.9294 6.11542 16.7937C5.84028 16.6581 5.60005 16.4609 5.41329 16.2175C5.22654 15.9741 5.09828 15.6911 5.03843 15.3902C4.97858 15.0893 4.98875 14.7787 5.06815 14.4824L5.92206 11.2953L3.9673 4H2V2ZM18 11L19.625 6H6.57259L7.91333 11H18Z" fill="white"/>
</svg>
