<svg width="24" height="24" viewBox="0 0 24 24" fill="none" xmlns="http://www.w3.org/2000/svg">
<path fill-rule="evenodd" clip-rule="evenodd" d="M12 0.75C12.4142 0.75 12.75 1.08579 12.75 1.5V3.075C12.75 3.48921 12.4142 3.825 12 3.825C11.5858 3.825 11.25 3.48921 11.25 3.075V1.5C11.25 1.08579 11.5858 0.75 12 0.75Z" fill="white"/>
<path fill-rule="evenodd" clip-rule="evenodd" d="M19.4247 4.57538L18.311 5.68905L19.4247 4.57538Z" fill="white"/>
<path fill-rule="evenodd" clip-rule="evenodd" d="M19.955 4.04504C20.2479 4.33793 20.2479 4.81281 19.955 5.1057L18.8414 6.21937C18.5485 6.51227 18.0736 6.51227 17.7807 6.21938C17.4878 5.92649 17.4878 5.45162 17.7807 5.15872L18.8944 4.04505C19.1872 3.75216 19.6621 3.75215 19.955 4.04504Z" fill="white"/>
<path fill-rule="evenodd" clip-rule="evenodd" d="M20.175 12C20.175 11.5858 20.5108 11.25 20.925 11.25H22.5C22.9143 11.25 23.25 11.5858 23.25 12C23.25 12.4142 22.9143 12.75 22.5 12.75H20.925C20.5108 12.75 20.175 12.4142 20.175 12Z" fill="white"/>
<path fill-rule="evenodd" clip-rule="evenodd" d="M19.4247 19.4246L18.311 18.3109L19.4247 19.4246Z" fill="white"/>
<path fill-rule="evenodd" clip-rule="evenodd" d="M17.7807 17.7806C18.0736 17.4877 18.5485 17.4877 18.8414 17.7806L19.955 18.8943C20.2479 19.1872 20.2479 19.662 19.955 19.9549C19.6621 20.2478 19.1872 20.2478 18.8944 19.9549L17.7807 18.8413C17.4878 18.5484 17.4878 18.0735 17.7807 17.7806Z" fill="white"/>
<path fill-rule="evenodd" clip-rule="evenodd" d="M12 20.175C12.4142 20.175 12.75 20.5108 12.75 20.925V22.5C12.75 22.9142 12.4142 23.25 12 23.25C11.5858 23.25 11.25 22.9142 11.25 22.5V20.925C11.25 20.5108 11.5858 20.175 12 20.175Z" fill="white"/>
<path fill-rule="evenodd" clip-rule="evenodd" d="M4.57544 19.4246L5.68911 18.3109L4.57544 19.4246Z" fill="white"/>
<path fill-rule="evenodd" clip-rule="evenodd" d="M6.21944 17.7806C6.51234 18.0735 6.51233 18.5484 6.21944 18.8413L5.10576 19.9549C4.81287 20.2478 4.338 20.2478 4.0451 19.9549C3.75221 19.662 3.75222 19.1872 4.04511 18.8943L5.15878 17.7806C5.45168 17.4877 5.92655 17.4877 6.21944 17.7806Z" fill="white"/>
<path fill-rule="evenodd" clip-rule="evenodd" d="M0.75 12C0.75 11.5858 1.08579 11.25 1.5 11.25H3.075C3.48921 11.25 3.825 11.5858 3.825 12C3.825 12.4142 3.48921 12.75 3.075 12.75H1.5C1.08579 12.75 0.75 12.4142 0.75 12Z" fill="white"/>
<path fill-rule="evenodd" clip-rule="evenodd" d="M4.57544 4.57538L5.68911 5.68905L4.57544 4.57538Z" fill="white"/>
<path fill-rule="evenodd" clip-rule="evenodd" d="M4.04511 4.04505C4.338 3.75216 4.81288 3.75216 5.10577 4.04505L6.21944 5.15872C6.51233 5.45161 6.51233 5.92649 6.21944 6.21938C5.92655 6.51227 5.45167 6.51227 5.15878 6.21938L4.04511 5.10571C3.75222 4.81282 3.75222 4.33794 4.04511 4.04505Z" fill="white"/>
<path fill-rule="evenodd" clip-rule="evenodd" d="M5.25 12C5.25 8.27209 8.27209 5.25 12 5.25C15.7279 5.25 18.75 8.27209 18.75 12C18.75 15.7279 15.7279 18.75 12 18.75C8.27209 18.75 5.25 15.7279 5.25 12ZM12 6.75C9.10051 6.75 6.75 9.10051 6.75 12C6.75 14.8995 9.10051 17.25 12 17.25C14.8995 17.25 17.25 14.8995 17.25 12C17.25 9.10051 14.8995 6.75 12 6.75Z" fill="white"/>
</svg>
