<svg width="16" height="16" viewBox="0 0 16 16" fill="none" xmlns="http://www.w3.org/2000/svg">
<path fill-rule="evenodd" clip-rule="evenodd" d="M15 8C15 6.61553 14.5895 5.26215 13.8203 4.11101C13.0511 2.95986 11.9579 2.06266 10.6788 1.53284C9.3997 1.00303 7.99223 0.864406 6.63437 1.1345C5.2765 1.4046 4.02922 2.07129 3.05025 3.05025C2.07128 4.02922 1.4046 5.2765 1.1345 6.63437C0.864406 7.99223 1.00303 9.3997 1.53284 10.6788C2.06266 11.9579 2.95986 13.0511 4.11101 13.8203C5.26215 14.5895 6.61553 15 8 15H11V13H8C7.01109 13 6.04439 12.7068 5.22215 12.1573C4.3999 11.6079 3.75904 10.827 3.3806 9.91342C3.00216 8.99979 2.90315 7.99445 3.09607 7.02455C3.289 6.05464 3.7652 5.16373 4.46447 4.46447C5.16373 3.7652 6.05464 3.289 7.02455 3.09607C7.99445 2.90315 8.99979 3.00216 9.91342 3.3806C10.827 3.75904 11.6079 4.3999 12.1573 5.22215C12.7068 6.04439 13 7.01109 13 8C13 8.26522 12.8946 8.51957 12.7071 8.70711C12.5196 8.89464 12.2652 9 12 9C11.7348 9 11.4804 8.89464 11.2929 8.70711C11.1054 8.51957 11 8.26522 11 8C11 6.34315 9.65685 5 8 5C6.34315 5 5 6.34315 5 8C5 9.65685 6.34315 11 8 11C8.76836 11 9.46926 10.7111 10 10.2361C10.5485 10.7267 11.2602 11 12 11C12.7956 11 13.5587 10.6839 14.1213 10.1213C14.6839 9.55871 15 8.79565 15 8ZM8 9C7.44772 9 7 8.55228 7 8C7 7.44772 7.44772 7 8 7C8.55228 7 9 7.44772 9 8C9 8.55228 8.55228 9 8 9Z" fill="white"/>
</svg>
