<svg width="16" height="16" viewBox="0 0 16 16" fill="none" xmlns="http://www.w3.org/2000/svg">
<path d="M9.5 10.5C9.5 11.3284 8.82843 12 8 12C7.17157 12 6.5 11.3284 6.5 10.5C6.5 9.67157 7.17157 9 8 9C8.82843 9 9.5 9.67157 9.5 10.5Z" fill="white"/>
<path fill-rule="evenodd" clip-rule="evenodd" d="M15 13C15 13.2626 14.9483 13.5227 14.8478 13.7654C14.7472 14.008 14.5999 14.2285 14.4142 14.4142C14.2285 14.5999 14.008 14.7472 13.7654 14.8478C13.5227 14.9483 13.2626 15 13 15L3 15C2.73736 15 2.47728 14.9483 2.23463 14.8478C1.99198 14.7472 1.7715 14.5999 1.58579 14.4142C1.40007 14.2285 1.25275 14.008 1.15224 13.7654C1.05173 13.5227 1 13.2626 1 13L1 8C1 7.73736 1.05173 7.47728 1.15224 7.23463C1.25275 6.99198 1.40007 6.7715 1.58579 6.58579C1.7715 6.40007 1.99198 6.25275 2.23463 6.15224C2.47728 6.05173 2.73736 6 3 6L4 6L4 5C4 3.93913 4.42143 2.92172 5.17157 2.17157C5.92172 1.42143 6.93913 1 8 1C9.06087 1 10.0783 1.42143 10.8284 2.17157C11.5786 2.92172 12 3.93913 12 5L12 6L13 6C13.2626 6 13.5227 6.05173 13.7654 6.15224C14.008 6.25275 14.2285 6.40007 14.4142 6.58579C14.5999 6.7715 14.7473 6.99198 14.8478 7.23463C14.9483 7.47728 15 7.73736 15 8L15 13ZM3 13L3 8L13 8L13 13L3 13ZM10 5L10 6L6 6L6 5C6 4.46957 6.21071 3.96086 6.58579 3.58579C6.96086 3.21071 7.46957 3 8 3C8.53043 3 9.03914 3.21071 9.41421 3.58579C9.78929 3.96086 10 4.46957 10 5Z" fill="white"/>
</svg>
