<svg width="16" height="16" viewBox="0 0 16 16" fill="none" xmlns="http://www.w3.org/2000/svg">
<path fill-rule="evenodd" clip-rule="evenodd" d="M15 15L1 15C1 14.0807 1.18106 13.1705 1.53284 12.3212C1.88463 11.4719 2.40024 10.7003 3.05025 10.0503C3.70026 9.40024 4.47194 8.88463 5.32122 8.53284C5.48327 8.46572 5.64755 8.40481 5.81369 8.35018C4.72158 7.63603 4 6.40228 4 5C4 2.79086 5.79086 1 8 1C10.2091 1 12 2.79086 12 5C12 6.40228 11.2784 7.63603 10.1863 8.35018C10.3524 8.40481 10.5167 8.46572 10.6788 8.53284C11.5281 8.88463 12.2997 9.40024 12.9497 10.0503C13.5998 10.7003 14.1154 11.4719 14.4672 12.3212C14.8189 13.1705 15 14.0807 15 15ZM6.06157 10.3202C5.44701 10.5748 4.88861 10.9479 4.41825 11.4183C3.96365 11.8729 3.59989 12.4097 3.3462 13H12.6538C12.4001 12.4097 12.0364 11.8729 11.5817 11.4183C11.1114 10.9479 10.553 10.5748 9.93843 10.3202C9.32387 10.0657 8.66519 9.93464 8 9.93464C7.33481 9.93464 6.67613 10.0657 6.06157 10.3202ZM8 7C6.89543 7 6 6.10457 6 5C6 3.89543 6.89543 3 8 3C9.10457 3 10 3.89543 10 5C10 6.10457 9.10457 7 8 7Z" fill="white"/>
</svg>
