<svg width="16" height="16" viewBox="0 0 16 16" fill="none" xmlns="http://www.w3.org/2000/svg">
<path d="M8 0.75C8 0.335786 8.33652 -0.00364784 8.74892 0.0351265C10.0668 0.159034 11.3375 0.608524 12.4446 1.34824C13.7602 2.22729 14.7855 3.47672 15.391 4.93853C15.9965 6.40034 16.155 8.00887 15.8463 9.56072C15.5376 11.1126 14.7757 12.538 13.6569 13.6569C12.538 14.7757 11.1126 15.5376 9.56072 15.8463C8.00887 16.155 6.40034 15.9965 4.93853 15.391C3.47672 14.7855 2.22729 13.7602 1.34824 12.4446C0.608524 11.3375 0.159033 10.0668 0.0351264 8.74892C-0.00364788 8.33652 0.335786 8 0.75 8V8C1.16421 8 1.49553 8.3369 1.54322 8.74836C1.66152 9.76904 2.02064 10.7509 2.59545 11.6112C3.30968 12.6801 4.32484 13.5132 5.51256 14.0052C6.70028 14.4972 8.00721 14.6259 9.26809 14.3751C10.529 14.1243 11.6872 13.5052 12.5962 12.5962C13.5052 11.6872 14.1243 10.529 14.3751 9.26809C14.6259 8.00721 14.4972 6.70028 14.0052 5.51256C13.5132 4.32484 12.6801 3.30968 11.6112 2.59545C10.7509 2.02064 9.76904 1.66152 8.74836 1.54322C8.3369 1.49553 8 1.16421 8 0.75V0.75Z" fill="#005FB8">
    <animateTransform attributeName="transform"
                      attributeType="XML"
                      type="rotate"
                      calcMode="spline"
                      keySplines="0.17 0.67 0.83 0.67"
                      keyTimes="0; 1"
                      values="0 8 8; 1080 8 8"
                      dur="2s"
                      repeatCount="indefinite"/>
</path>
</svg>
