<svg width="16" height="16" viewBox="0 0 16 16" fill="none" xmlns="http://www.w3.org/2000/svg">
<path d="M6.75195 3.99805C6.75195 3.83008 6.78516 3.66992 6.85156 3.51758C6.91797 3.36523 7.00781 3.23242 7.12109 3.11914C7.23438 3.00586 7.36523 2.91602 7.51367 2.84961C7.66602 2.7832 7.82812 2.75 8 2.75C8.16797 2.75 8.32812 2.7832 8.48047 2.84961C8.63281 2.91602 8.76562 3.00586 8.87891 3.11914C8.99219 3.23242 9.08203 3.36523 9.14844 3.51758C9.21484 3.66992 9.24805 3.83008 9.24805 3.99805C9.24805 4.16992 9.21484 4.33203 9.14844 4.48438C9.08203 4.63672 8.99219 4.76953 8.87891 4.88281C8.76562 4.99609 8.63281 5.08594 8.48047 5.15234C8.33203 5.21875 8.17188 5.25195 8 5.25195C7.82812 5.25195 7.66602 5.21875 7.51367 5.15234C7.36523 5.08594 7.23438 4.99609 7.12109 4.88281C7.00781 4.76953 6.91797 4.63672 6.85156 4.48438C6.78516 4.33203 6.75195 4.16992 6.75195 3.99805ZM6.99805 12.002V8C6.99805 7.86328 7.02344 7.73438 7.07422 7.61328C7.12891 7.49219 7.20117 7.38672 7.29102 7.29688C7.38477 7.20312 7.49219 7.13086 7.61328 7.08008C7.73438 7.02539 7.86328 6.99805 8 6.99805C8.13672 6.99805 8.26562 7.02539 8.38672 7.08008C8.50781 7.13086 8.61328 7.20312 8.70312 7.29688C8.79688 7.38672 8.86914 7.49219 8.91992 7.61328C8.97461 7.73438 9.00195 7.86328 9.00195 8V12.002C9.00195 12.1387 8.97461 12.2676 8.91992 12.3887C8.86914 12.5098 8.79688 12.6152 8.70312 12.7051C8.61328 12.7949 8.50781 12.8672 8.38672 12.9219C8.26562 12.9727 8.13672 12.998 8 12.998C7.86328 12.998 7.73438 12.9727 7.61328 12.9219C7.49219 12.8672 7.38477 12.7949 7.29102 12.7051C7.20117 12.6152 7.12891 12.5098 7.07422 12.3887C7.02344 12.2676 6.99805 12.1387 6.99805 12.002Z" fill="white"/>
</svg>
