<svg width="64" height="16" viewBox="0 0 64 16" fill="none" xmlns="http://www.w3.org/2000/svg">
<rect x="2" y="1" width="14" height="14" rx="4" fill="white"/>
<rect x="5" y="4" width="8" height="8" rx="2" fill="#2B2B2B"/>
<path fill-rule="evenodd" clip-rule="evenodd" d="M25 6C25 4.89543 24.1046 4 23 4H19C17.8954 4 17 4.89543 17 6V10C17 11.1046 17.8954 12 19 12H23C24.1046 12 25 11.1046 25 10V6ZM22 6H20C19.4477 6 19 6.44772 19 7V9C19 9.55228 19.4477 10 20 10H22C22.5523 10 23 9.55228 23 9V7C23 6.44772 22.5523 6 22 6Z" fill="white"/>
<rect x="17" y="6" width="2" height="8" rx="1" fill="white"/>
<rect x="28" y="12" width="4" height="2" rx="1" fill="white"/>
<rect x="26" y="4" width="6" height="2" rx="1" fill="white"/>
<rect x="33" y="6" width="2" height="6" rx="1" fill="white"/>
<rect x="33" y="2" width="2" height="2" rx="1" fill="white"/>
<rect x="7" y="6" width="4" height="4" rx="1" fill="white"/>
<rect x="36" y="4" width="2" height="8" rx="1" fill="white"/>
<rect x="42" y="4" width="2" height="8" rx="1" fill="white"/>
<rect x="37.0037" y="3.46448" width="6.2242" height="2" rx="1" transform="rotate(45 37.0037 3.46448)" fill="white"/>
<rect width="6.2242" height="2" rx="1" transform="matrix(-0.707107 0.707107 0.707107 0.707107 42.9907 3.46448)" fill="white"/>
<rect x="54" y="4" width="2" height="8" rx="1" fill="white"/>
<rect x="60" y="4" width="2" height="8" rx="1" fill="white"/>
<rect x="55.0037" y="3.46448" width="6.2242" height="2" rx="1" transform="rotate(45 55.0037 3.46448)" fill="white"/>
<rect width="6.2242" height="2" rx="1" transform="matrix(-0.707107 0.707107 0.707107 0.707107 60.9907 3.46448)" fill="white"/>
<rect x="45" y="4" width="2" height="8" rx="1" fill="white"/>
<rect x="51" y="4" width="2" height="8" rx="1" fill="white"/>
<rect x="53" y="10" width="2" height="8" rx="1" transform="rotate(90 53 10)" fill="white"/>
<rect x="28" y="2" width="2" height="12" rx="1" fill="white"/>
</svg>
