<svg width="96"
     height="42"
     fill="none"
     viewBox="0 0 96 42"
     xmlns="http://www.w3.org/2000/svg">
  <path
    d="M90.1213 35.1213C89.8428 35.3999 89.512 35.6209 89.1481 35.7716C88.7841 35.9224 88.394 36 88 36L81 36C80.6061 36 80.2159 35.9224 79.852 35.7716C79.488 35.6209 79.1573 35.3999 78.8787 35.1213C78.6001 34.8427 78.3791 34.512 78.2284 34.1481C78.0776 33.7841 78 33.394 78 33L78 27C78 26.606 78.0776 26.2159 78.2284 25.8519C78.3791 25.488 78.6001 25.1573 78.8787 24.8787C79.1573 24.6001 79.488 24.3791 79.852 24.2284C80.2159 24.0776 80.6061 24 81 24L87 24C87.394 24 87.7841 24.0776 88.1481 24.2284C88.512 24.3791 88.8428 24.6001 89.1213 24.8787C89.3999 25.1573 89.6209 25.488 89.7717 25.852C89.9224 26.2159 90 26.606 90 27C90 27.394 89.9224 27.7841 89.7717 28.1481C89.6209 28.512 89.3999 28.8427 89.1213 29.1213C88.8428 29.3999 88.512 29.6209 88.1481 29.7716C87.7841 29.9224 87.394 30 87 30L80 30"
    stroke="white"
    stroke-width="4"
    stroke-dasharray="64"
    stroke-dashoffset="64">
    <animate fill="freeze"
             attributeName="stroke-dashoffset"
             values="64;0"
             dur="1s"
             begin="3.25s" />
  </path>
  <path d="M72.2426 25.7574C71.1174 24.6321 69.5913 24 68 24L66 24C64.4087 24 62.8826 24.6321 61.7574 25.7574C60.6321 26.8826 60 28.4087 60 30C60 31.5913 60.6321 33.1174 61.7574 34.2426C62.8826 35.3679 64.4087 36 66 36L68 36C68.7879 36 69.5681 35.8448 70.2961 35.5433C71.0241 35.2418 71.6855 34.7998 72.2426 34.2426"
        stroke="white"
        stroke-width="4"
        stroke-dasharray="64"
        stroke-dashoffset="64">
    <animate fill="freeze"
             attributeName="stroke-dashoffset"
             values="64;0"
             dur="1s"
             begin="3s" />
  </path>
  <path
    d="M54 22L54 33L54 30C54 28.8133 53.6481 27.6533 52.9888 26.6666C52.3295 25.6799 51.3925 24.9109 50.2961 24.4567C49.1997 24.0026 47.9933 23.8838 46.8295 24.1153C45.6656 24.3468 44.5965 24.9182 43.7574 25.7574C42.9182 26.5965 42.3468 27.6656 42.1153 28.8295C41.8838 29.9933 42.0026 31.1997 42.4567 32.2961C42.9108 33.3925 43.6799 34.3295 44.6666 34.9888C45.6533 35.6481 46.8133 36 48 36L56 36"
    stroke="white"
    stroke-width="4"
    stroke-dasharray="64"
    stroke-dashoffset="64">
    <animate fill="freeze"
             attributeName="stroke-dashoffset"
             values="64;0"
             dur="1s"
             begin="2.75s" />
  </path>
  <path
    d="M24 38L24 24L32 24C32.5253 24 33.0454 24.1035 33.5307 24.3045C34.016 24.5055 34.457 24.8001 34.8284 25.1716C35.1999 25.543 35.4945 25.984 35.6955 26.4693C35.8965 26.9546 36 27.4747 36 28C36 28.5253 35.8965 29.0454 35.6955 29.5307C35.4945 30.016 35.1999 30.457 34.8284 30.8284C34.457 31.1999 34.016 31.4945 33.5307 31.6955C33.0454 31.8965 32.5253 32 32 32L26 32"
    stroke="white"
    stroke-width="4"
    stroke-dasharray="64"
    stroke-dashoffset="64">
    <animate fill="freeze"
             attributeName="stroke-dashoffset"
             values="64;0"
             dur="1s"
             begin="2.5s" />
  </path>
  <path
    d="M5.8787 35.1213C6.44131 35.6839 7.20437 36 8.00002 36L15 36C15.394 36 15.7841 35.9224 16.1481 35.7716C16.512 35.6209 16.8428 35.3999 17.1213 35.1213C17.3999 34.8427 17.6209 34.512 17.7717 34.1481C17.9224 33.7841 18 33.394 18 33C18 32.606 17.9224 32.2159 17.7717 31.852C17.6209 31.488 17.3999 31.1573 17.1213 30.8787C16.8428 30.6001 16.512 30.3791 16.1481 30.2284C15.7841 30.0776 15.394 30 15 30L9.00002 30C8.60605 30 8.21594 29.9224 7.85197 29.7716C7.48799 29.6209 7.15727 29.3999 6.8787 29.1213C6.60012 28.8427 6.37914 28.512 6.22838 28.148C6.07761 27.7841 6.00002 27.394 6.00002 27C6.00002 26.606 6.07761 26.2159 6.22838 25.8519C6.37914 25.488 6.60012 25.1573 6.8787 24.8787C7.15727 24.6001 7.48799 24.3791 7.85197 24.2284C8.21594 24.0776 8.60605 24 9.00002 24L16 24C16.7957 24 17.5587 24.3161 18.1213 24.8787"
    stroke="white"
    stroke-width="4"
    stroke-dasharray="64"
    stroke-dashoffset="64">
    <animate fill="freeze"
             attributeName="stroke-dashoffset"
             values="64;0"
             dur="1s"
             begin="2.25s" />
  </path>
  <!-- letter M -->
  <path
    d="M90 20 90 4 90 6 89.15 6 84 15 78.85 6 78 6 78 4 78 20"
    stroke="white"
    stroke-width="4"
    stroke-dasharray="64"
    stroke-dashoffset="64">
    <animate fill="freeze"
             attributeName="stroke-dashoffset"
             values="64;0"
             dur="1s"
             begin="2s" />
  </path>
  <path d="M72 4V18H66C65.2121 18 64.4319 17.8448 63.7039 17.5433C62.9759 17.2417 62.3145 16.7998 61.7574 16.2426C61.2002 15.6855 60.7583 15.0241 60.4567 14.2961C60.1552 13.5681 60 12.7879 60 12V4"
        stroke="white"
        stroke-width="4"
        stroke-dasharray="64"
        stroke-dashoffset="64">
    <animate fill="freeze"
             attributeName="stroke-dashoffset"
             values="64;0"
             dur="1s"
             begin="1.75s" />
  </path>
  <path d="M54.1213 17.1213C53.8428 17.3999 53.512 17.6209 53.1481 17.7716C52.7841 17.9224 52.394 18 52 18L45 18C44.6061 18 44.2159 17.9224 43.852 17.7716C43.488 17.6209 43.1573 17.3999 42.8787 17.1213C42.6001 16.8427 42.3791 16.512 42.2284 16.1481C42.0776 15.7841 42 15.394 42 15L42 9C42 8.60603 42.0776 8.21593 42.2284 7.85195C42.3791 7.48797 42.6001 7.15725 42.8787 6.87868C43.1573 6.6001 43.488 6.37913 43.852 6.22836C44.2159 6.0776 44.6061 6 45 6L51 6C51.394 6 51.7841 6.0776 52.1481 6.22836C52.512 6.37913 52.8428 6.6001 53.1213 6.87868C53.3999 7.15726 53.6209 7.48797 53.7717 7.85195C53.9224 8.21593 54 8.60603 54 9C54 9.39397 53.9224 9.78407 53.7717 10.1481C53.6209 10.512 53.3999 10.8427 53.1213 11.1213C52.8428 11.3999 52.512 11.6209 52.1481 11.7716C51.7841 11.9224 51.394 12 51 12L44 12"
        stroke="white"
        stroke-width="4"
        stroke-dasharray="64"
        stroke-dashoffset="64">
    <animate fill="freeze"
             attributeName="stroke-dashoffset"
             values="64;0"
             dur="1s"
             begin="1.5s" />
  </path>
  <path d="M24 20V6L32 6C32.5253 6 33.0454 6.10346 33.5307 6.30448C34.016 6.5055 34.457 6.80014 34.8284 7.17157C35.1999 7.54301 35.4945 7.98396 35.6955 8.46927C35.8965 8.95457 36 9.47471 36 10C36 10.5253 35.8965 11.0454 35.6955 11.5307C35.4945 12.016 35.1999 12.457 34.8284 12.8284C34.457 13.1999 34.016 13.4945 33.5307 13.6955C33.0454 13.8965 32.5253 14 32 14H30M26 14H30M30 14C30.7879 14 31.5681 14.1552 32.2961 14.4567C33.0241 14.7583 33.6855 15.2002 34.2426 15.7574C34.7998 16.3145 35.2417 16.9759 35.5433 17.7039C35.8448 18.4319 36 19.2121 36 20"
        stroke="white"
        stroke-width="4"
        stroke-dasharray="64"
        stroke-dashoffset="64">
    <animate fill="freeze"
             attributeName="stroke-dashoffset"
             values="64;0"
             dur="1s"
             begin="1.25" />
  </path>
  <path d="M6 9V12C5.99999 13.1867 6.35189 14.3467 7.01117 15.3334C7.67046 16.3201 8.60753 17.0891 9.70389 17.5433C10.8002 17.9974 12.0066 18.1162 13.1705 17.8847C14.3344 17.6532 15.4035 17.0818 16.2426 16.2426C17.0817 15.4035 17.6532 14.3344 17.8847 13.1705C18.1162 12.0067 17.9974 10.8003 17.5433 9.7039C17.0892 8.60754 16.3201 7.67047 15.3334 7.01118C14.3467 6.35189 13.1867 6 12 6L4 6"
        stroke="white"
        stroke-width="4"
        stroke-dasharray="64"
        stroke-dashoffset="64">
    <animate fill="freeze"
             attributeName="stroke-dashoffset"
             values="64;0"
             dur="1s"
             begin="1s" />
  </path>
</svg>
